<!DOCTYPE svg PUBLIC "-//W3C//DTD SVG 1.1//EN" "http://www.w3.org/Graphics/SVG/1.1/DTD/svg11.dtd">
<!-- Uploaded to: SVG Repo, www.svgrepo.com, Transformed by: SVG Repo Mixer Tools -->
<svg fill="#89c1e3" height="800px" width="800px" version="1.1" id="Capa_1" xmlns="http://www.w3.org/2000/svg" xmlns:xlink="http://www.w3.org/1999/xlink" viewBox="0 0 346.147 346.147" xml:space="preserve" stroke="#89c1e3">
<g id="SVGRepo_bgCarrier" stroke-width="0"/>
<g id="SVGRepo_tracerCarrier" stroke-linecap="round" stroke-linejoin="round"/>
<g id="SVGRepo_iconCarrier"> <g> <path d="M296.7,160.136l-10.336-72.967c-0.457-3.231-2.951-5.796-6.17-6.343c-3.213-0.542-6.418,1.052-7.918,3.95 c-0.055,0.107-1.646,3.188-4.172,8.085l-13.732-41.584c-0.914-2.764-3.342-4.749-6.23-5.096c-2.748-0.328-5.436,0.898-7.016,3.148 l-12.898-27.323c-1.084-2.295-3.254-3.886-5.77-4.229c-2.514-0.339-5.029,0.609-6.689,2.53l-3.441,3.986L202.55,4.218 c-1.234-2.535-3.787-4.163-6.607-4.215c-2.805-0.084-5.43,1.482-6.756,3.972c-0.039,0.075-2.676,5.026-6.564,12.491 c-1.758-3.894-2.824-6.246-2.855-6.317c-1.217-2.684-3.889-4.404-6.832-4.404c-0.016,0-0.033,0-0.051,0 c-2.961,0.021-5.635,1.782-6.82,4.497l-2.638,6.037C159.591,8.919,157,4.049,156.959,3.975c-1.326-2.489-3.939-4.004-6.756-3.972 c-2.818,0.052-5.371,1.68-6.605,4.215l-9.777,20.076l-3.441-3.986c-1.66-1.921-4.176-2.873-6.691-2.53 c-2.514,0.344-4.686,1.935-5.768,4.229l-12.9,27.323c-1.578-2.249-4.258-3.479-7.014-3.148c-2.891,0.347-5.318,2.332-6.23,5.096 L78.043,92.862c-2.525-4.897-4.117-7.978-4.174-8.085c-1.498-2.898-4.701-4.492-7.918-3.95c-3.217,0.547-5.711,3.111-6.17,6.343 l-10.336,72.967c-1.35,9.534,0.664,19.009,5.674,26.679c5.213,7.983,13.012,13.078,21.955,14.346 c0.771,0.11,2.084,0.192,3.594,0.253c-1.887,18.214,14.837,36.12,39.679,41.682c1.891,0.423,3.791,0.748,5.691,1.004 c2.91,7.314,11.234,12.587,21.779,15.725v55.431c0,2.522,1.268,4.876,3.375,6.264l35.511,23.393 c1.248,0.821,2.684,1.236,4.125,1.236c1.221,0,2.443-0.298,3.559-0.897c2.428-1.309,3.941-3.844,3.941-6.603v-78.903 c10.395-3.142,18.582-8.373,21.484-15.6c1.998-0.261,3.998-0.604,5.986-1.049c24.84-5.561,41.564-23.468,39.678-41.682 c1.512-0.061,2.82-0.143,3.594-0.253c8.945-1.268,16.742-6.362,21.957-14.346C296.038,179.145,298.052,169.67,296.7,160.136z M258.495,111.533c-2.902,5.652-6.004,11.705-9.049,17.664c-0.863-2.37-2.869-4.174-5.369-4.746 c-2.822-0.642-5.756,0.389-7.551,2.655c-0.906,1.146-12.719,16.068-25.975,33.136c-2.512-5.419-5.316-11.242-8.189-17.073 c0.234-0.483,22.703-39.513,42.795-71.957C245.157,71.211,258.444,111.402,258.495,111.533z M178.368,188.889 c-1.432-1.505-3.447-2.311-5.502-2.33c-2.076,0.02-4.053,0.899-5.457,2.43l-5.382,5.866c-4.625-6.234-10.191-13.56-15.951-21.053 l26.929-55.301c7.648,14.703,19.883,38.663,27.164,55.171c-5.811,7.561-11.432,14.956-16.092,21.237 C180.667,191.306,178.417,188.939,178.368,188.889z M231.691,64.482c-4.574,7.396-10.352,16.77-16.133,26.23 c-2.828-6.678-7.137-16.549-13.703-31.338l17.731-20.535L231.691,64.482z M195.554,24.112l6.104,12.538l-6.551,7.588 c-1.598-3.572-3.152-7.041-4.623-10.316C192.304,30.376,194.021,27.059,195.554,24.112z M173.048,31.714 c0.707,1.571,30.359,68.021,32.81,74.936c-5.373,8.877-9.164,15.254-11.822,19.916c-7.662-15.05-14.143-27.224-14.666-28.205 c-1.326-2.487-3.932-4.036-6.756-3.971c-2.818,0.052-5.371,1.681-6.606,4.216l-13.746,28.229 c-2.664-4.683-6.494-11.129-11.969-20.172L173.048,31.714z M150.593,24.112c1.541,2.962,3.268,6.3,5.098,9.866l-4.541,10.389 l-6.662-7.717L150.593,24.112z M126.56,38.839l17.932,20.766l-13.723,31.402c-5.842-9.561-11.691-19.053-16.314-26.525 L126.56,38.839z M100.988,71.211c20.092,32.444,42.693,71.851,43.065,72.483l-8.211,16.864 c-13.357-17.198-25.309-32.301-26.221-33.453c-1.793-2.266-4.729-3.3-7.553-2.655c-2.5,0.572-4.506,2.376-5.369,4.746 c-3.043-5.959-6.146-12.012-9.049-17.664C87.703,111.402,100.988,71.211,100.988,71.211z M67.678,178.613 c-3.021-4.625-4.221-10.44-3.381-16.373l7.033-49.647c6.234,12.122,14.033,27.337,20.179,39.481l-7.707,34.432 c-2.23-0.053-4.087-0.133-4.623-0.196C74.578,185.657,70.492,182.923,67.678,178.613z M95.812,201.529l10.914-48.763 c0.004-0.019,0.008-0.036,0.012-0.055l0.875-3.913c6.203,7.899,38.768,50.096,44.084,57.316l-21.441,23.369 c-2.207-0.199-4.426-0.533-6.633-1.027C106.156,224.547,93.42,212.215,95.812,201.529z M183.329,324.725l-20.511-13.512v-48.491 c3.331,0.345,6.726,0.525,10.117,0.525c3.484,0,6.975-0.189,10.395-0.553V324.725z M198.61,243.73 c-6.637,2.87-15.996,4.517-25.676,4.517c-9.679,0-19.037-1.646-25.673-4.517c-3.189-1.379-5.129-2.771-6.207-3.829l31.974-34.85 c1.887,1.993,27.852,29.751,32.047,34.584C204.064,240.719,202.075,242.232,198.61,243.73z M222.525,228.456 c-2.125,0.476-4.26,0.801-6.385,1.003c-3.209-3.725-20.242-22.001-21.608-23.457c11.92-16.185,32.047-41.981,44-57.204 l11.803,52.731C252.728,212.215,239.991,224.547,222.525,228.456z M278.47,178.613c-2.816,4.31-6.9,7.044-11.465,7.691 c-0.557,0.065-2.426,0.145-4.662,0.198l-7.705-34.429c6.145-12.145,13.945-27.359,20.178-39.481l7.033,49.647 C282.691,168.173,281.489,173.988,278.47,178.613z"/> </g> </g>
</svg>